<svg xmlns="http://www.w3.org/2000/svg" xmlns:xlink="http://www.w3.org/1999/xlink" viewBox="0 0 230.62 94.34"><defs><style>.cls-1{fill:none;}.cls-2{isolation:isolate;}.cls-3{fill:#fff;}.cls-4{mix-blend-mode:multiply;}.cls-5{clip-path:url(#clip-path);}.cls-6{fill:#fbb042;}.cls-7{clip-path:url(#clip-path-2);}.cls-8{fill:#f89521;}.cls-9{clip-path:url(#clip-path-3);}.cls-10{fill:#6e6f72;}</style><clipPath id="clip-path" transform="translate(0 -1.75)"><rect id="SVGID" class="cls-1" x="140.67" y="25.42" width="93.49" height="46.28" transform="translate(122.89 231.1) rotate(-85.06)"/></clipPath><clipPath id="clip-path-2" transform="translate(0 -1.75)"><rect id="SVGID-2" data-name="SVGID" class="cls-1" x="167.67" y="36.41" width="72.99" height="36.22" transform="translate(132.27 253.24) rotate(-85.06)"/></clipPath><clipPath id="clip-path-3" transform="translate(0 -1.75)"><rect id="SVGID-3" data-name="SVGID" class="cls-1" x="192.91" y="47.53" width="51.06" height="25.47" transform="translate(139.59 272.7) rotate(-85.06)"/></clipPath></defs><title>Asset 3</title><g class="cls-2"><g id="Layer_2" data-name="Layer 2"><g id="Layer_1-2" data-name="Layer 1"><path class="cls-3" d="M28.5,74.68a29.89,29.89,0,0,1-1.2,8.74,18.59,18.59,0,0,1-3.63,6.75,16.23,16.23,0,0,1-6.08,4.37A22,22,0,0,1,9,96.09a43,43,0,0,1-4.42-.23A37.81,37.81,0,0,1,0,95.07l.71-7.75a2.52,2.52,0,0,1,.82-1.66,3,3,0,0,1,2-.63,8.34,8.34,0,0,1,1.66.22,11.34,11.34,0,0,0,2.36.22,9.55,9.55,0,0,0,3.36-.54,5.15,5.15,0,0,0,2.38-1.77,8.43,8.43,0,0,0,1.42-3.24,21.78,21.78,0,0,0,.47-5V38.12H28.5Z" transform="translate(0 -1.75)"/><path class="cls-3" d="M126.13,38.12,104.42,95.46h-12L81.59,59.92A18.83,18.83,0,0,1,81,58.09c-.19-.67-.37-1.37-.55-2.1-.19.73-.37,1.43-.55,2.1s-.39,1.28-.59,1.83l-11,35.54h-12L34.61,38.12H45.79a5,5,0,0,1,2.89.79A3.58,3.58,0,0,1,50.19,41S63.25,76.27,63.48,77.48a46.23,46.23,0,0,1,1.73-6.58L74.5,41A4.15,4.15,0,0,1,76,39a4.49,4.49,0,0,1,2.81-.88h3.94a4.49,4.49,0,0,1,2.79.81A5.07,5.07,0,0,1,87.18,41L96.39,70.9a42.2,42.2,0,0,1,1.73,6.26C98.33,76,111.33,41,111.33,41a3.79,3.79,0,0,1,1.49-2,4.73,4.73,0,0,1,2.84-.86Z" transform="translate(0 -1.75)"/><path class="cls-3" d="M170.22,95.46H159.91a4.55,4.55,0,0,1-2.79-.8,5.17,5.17,0,0,1-1.62-2.07l-3.38-10H130.31l-3.38,10a4.82,4.82,0,0,1-1.56,2,4.31,4.31,0,0,1-2.77.88H112.21l22.2-57.34H148ZM149.09,73.54l-5.32-15.7c-.39-1-.81-2.17-1.26-3.53s-.89-2.81-1.33-4.38q-.6,2.4-1.26,4.44c-.45,1.37-.87,2.55-1.26,3.55l-5.28,15.62Z" transform="translate(0 -1.75)"/><g class="cls-4"><g class="cls-5"><path class="cls-6" d="M207.26,48.47c-4.8-12.06-18.62-46.72-18.62-46.72s-33.08,14.26-20,47c4.29,10.8,18.61,46.72,18.61,46.72s30.8-20,20-47" transform="translate(0 -1.75)"/></g></g><g class="cls-4"><g class="cls-7"><path class="cls-8" d="M219.7,54.45,205.12,18S179.23,29.1,189.45,54.66C192.81,63.09,204,91.14,204,91.14s24.09-15.61,15.67-36.69" transform="translate(0 -1.75)"/></g></g><g class="cls-4"><g class="cls-9"><path class="cls-10" d="M229.36,60.22C226.71,53.64,219.1,34.7,219.1,34.7s-18.2,7.78-11,25.66l10.26,25.52s16.94-10.91,11-25.66" transform="translate(0 -1.75)"/></g></g></g></g></g></svg>